<svg xmlns="http://www.w3.org/2000/svg" viewBox="0 0 1050 292" width="1050" height="292" style="background:#070a0e;font-family:ui-sans-serif,system-ui,sans-serif">
<defs><marker id="arrow" viewBox="0 0 10 10" refX="9" refY="5" markerWidth="6" markerHeight="6" orient="auto"><path d="M 0 0 L 10 5 L 0 10 z" fill="#6b7a8d"/></marker><marker id="arrow-fail" viewBox="0 0 10 10" refX="9" refY="5" markerWidth="6" markerHeight="6" orient="auto"><path d="M 0 0 L 10 5 L 0 10 z" fill="#ef5350"/></marker><pattern id="grid" width="24" height="24" patternUnits="userSpaceOnUse"><path d="M 24 0 L 0 0 0 24" fill="none" stroke="#1a2030" stroke-width="0.5"/></pattern></defs>
<rect width="1050" height="292" fill="url(#grid)"/>
<path d="M 210 64 C 215.0 64, 215.0 64, 220 64" fill="none" stroke="#6b7a8d" stroke-width="1.5" marker-end="url(#arrow)" opacity="0.85"/>
<path d="M 390 64 C 405.0 64, 405.0 64, 420 64" fill="none" stroke="#ef5350" stroke-width="2" stroke-dasharray="6 3" marker-end="url(#arrow-fail)" opacity="0.85"/>
<path d="M 590 64 C 605.0 64, 605.0 64, 620 64" fill="none" stroke="#6b7a8d" stroke-width="1.5" marker-end="url(#arrow)" opacity="0.85"/>
<path d="M 705 96 C 705 136.8, 160 164, 220 164" fill="none" stroke="#6b7a8d" stroke-width="1.5" marker-end="url(#arrow)" opacity="0.85"/>
<path d="M 390 164 C 405.0 164, 405.0 164, 420 164" fill="none" stroke="#6b7a8d" stroke-width="1.5" marker-end="url(#arrow)" opacity="0.85"/>
<path d="M 590 164 C 605.0 164, 605.0 164, 620 164" fill="none" stroke="#6b7a8d" stroke-width="1.5" marker-end="url(#arrow)" opacity="0.85"/>
<path d="M 790 164 C 805.0 164, 805.0 164, 820 164" fill="none" stroke="#ef5350" stroke-width="2" stroke-dasharray="6 3" marker-end="url(#arrow-fail)" opacity="0.85"/>
<g transform="translate(40,32)"><rect width="170" height="64" rx="6" ry="6" fill="#1e2530" stroke="#6b7a8d" stroke-width="1.5" opacity="0.95"/><text x="10" y="18" fill="#c9d4e0" font-size="11" font-weight="600" letter-spacing="0.4">QUERY</text><text x="10" y="36" fill="#c9d4e0" font-size="11" font-family="ui-monospace,SFMono-Regular,monospace">What is the population of…</text>
</g>
<g transform="translate(220,32)"><rect width="170" height="64" rx="6" ry="6" fill="#0d1f2a" stroke="#4fc3f7" stroke-width="1.5" opacity="0.95"/><text x="10" y="18" fill="#4fc3f7" font-size="11" font-weight="600" letter-spacing="0.4">THOUGHT</text><text x="10" y="36" fill="#c9d4e0" font-size="11" font-family="ui-monospace,SFMono-Regular,monospace">The user wants the popula…</text>
<text x="10" y="54" fill="#6b7a8d" font-size="10">298ms  ·  34 tok</text>
</g>
<g transform="translate(420,32)"><rect width="170" height="64" rx="6" ry="6" fill="#2a0d0d" stroke="#ef5350" stroke-width="1.5" opacity="0.95"/><text x="10" y="18" fill="#ef5350" font-size="11" font-weight="600" letter-spacing="0.4">ACTION · WEATHER_FORECAST</text><text x="10" y="36" fill="#c9d4e0" font-size="11" font-family="ui-monospace,SFMono-Regular,monospace">{"city": "Lyon"}</text>
<text x="10" y="54" fill="#6b7a8d" font-size="10">156ms  ·  22 tok</text>
<g transform="translate(162,0)"><circle r="5" fill="#ef5350"/><text y="3" text-anchor="middle" fill="#fff" font-size="8" font-weight="700">!</text></g>
</g>
<g transform="translate(620,32)"><rect width="170" height="64" rx="6" ry="6" fill="#2a1c08" stroke="#ffb74d" stroke-width="1.5" opacity="0.95"/><text x="10" y="18" fill="#ffb74d" font-size="11" font-weight="600" letter-spacing="0.4">OBSERVATION</text><text x="10" y="36" fill="#c9d4e0" font-size="11" font-family="ui-monospace,SFMono-Regular,monospace">[ERROR] Tool 'weather_for…</text>
<text x="10" y="54" fill="#6b7a8d" font-size="10">8ms  ·  42 tok</text>
</g>
<g transform="translate(220,132)"><rect width="170" height="64" rx="6" ry="6" fill="#0d1f2a" stroke="#4fc3f7" stroke-width="1.5" opacity="0.95"/><text x="10" y="18" fill="#4fc3f7" font-size="11" font-weight="600" letter-spacing="0.4">THOUGHT</text><text x="10" y="36" fill="#c9d4e0" font-size="11" font-family="ui-monospace,SFMono-Regular,monospace">The weather tool isn't av…</text>
<text x="10" y="54" fill="#6b7a8d" font-size="10">312ms  ·  38 tok</text>
</g>
<g transform="translate(420,132)"><rect width="170" height="64" rx="6" ry="6" fill="#0d2010" stroke="#81c784" stroke-width="1.5" opacity="0.95"/><text x="10" y="18" fill="#81c784" font-size="11" font-weight="600" letter-spacing="0.4">ACTION · WEB_SEARCH</text><text x="10" y="36" fill="#c9d4e0" font-size="11" font-family="ui-monospace,SFMono-Regular,monospace">{"query": "Lyon France we…</text>
<text x="10" y="54" fill="#6b7a8d" font-size="10">178ms  ·  28 tok</text>
</g>
<g transform="translate(620,132)"><rect width="170" height="64" rx="6" ry="6" fill="#2a1c08" stroke="#ffb74d" stroke-width="1.5" opacity="0.95"/><text x="10" y="18" fill="#ffb74d" font-size="11" font-weight="600" letter-spacing="0.4">OBSERVATION</text><text x="10" y="36" fill="#c9d4e0" font-size="11" font-family="ui-monospace,SFMono-Regular,monospace">Lyon weather: 18°C, partl…</text>
<text x="10" y="54" fill="#6b7a8d" font-size="10">1124ms  ·  46 tok</text>
</g>
<g transform="translate(820,132)"><rect width="170" height="64" rx="6" ry="6" fill="#241627" stroke="#ef5350" stroke-width="1.5" opacity="0.95"/><text x="10" y="18" fill="#ef5350" font-size="11" font-weight="600" letter-spacing="0.4">DECISION</text><text x="10" y="36" fill="#c9d4e0" font-size="11" font-family="ui-monospace,SFMono-Regular,monospace">Lyon currently has mild w…</text>
<text x="10" y="54" fill="#6b7a8d" font-size="10">287ms  ·  32 tok</text>
<g transform="translate(162,0)"><circle r="5" fill="#ef5350"/><text y="3" text-anchor="middle" fill="#fff" font-size="8" font-weight="700">!</text></g>
</g>
</svg>